<svg width="48px" height="39px" viewBox="0 0 48 39" version="1.1" xmlns="http://www.w3.org/2000/svg" xmlns:xlink="http://www.w3.org/1999/xlink">
    <!-- Generator: Sketch 3.8.3 (29802) - http://www.bohemiancoding.com/sketch -->
    <desc>Created with Sketch.</desc>
    <defs></defs>
    <rect id="Rectangle-1-Copy-4" stroke="none" fill="#67C15E" fill-rule="evenodd" x="0" y="0" width="48" height="39"></rect>
    <path d="M26.9509107,20.9321583 C26.5562674,20.9321583 25.7973379,22.4044815 25.3419802,22.4044815 C25.2205515,22.4044815 25.1143013,22.3589457 25.0080512,22.2982313 C24.1580502,21.8732308 23.4142993,21.4330517 22.7160842,20.7651938 C22.1392978,20.2187646 21.501797,19.3991207 21.1678681,18.685727 C21.1223323,18.6098341 21.0919751,18.5339411 21.0919751,18.4580482 C21.0919751,18.1089406 22.1392978,17.4562613 22.1392978,16.8794749 C22.1392978,16.727689 21.3651897,14.6634008 21.2589396,14.4053648 C21.1071537,14.0107215 21.0312608,13.8892927 20.6214388,13.8892927 C20.4241172,13.8892927 20.2419741,13.843757 20.059831,13.843757 C19.7410807,13.843757 19.4982232,13.9651857 19.2705444,14.1776859 C18.5419721,14.8607225 18.1776859,15.5741162 18.1473288,16.5759031 L18.1473288,16.6973318 C18.1321502,17.7446545 18.6482222,18.7919772 19.2250086,19.6419782 C20.5303673,21.569659 21.8812618,23.2544825 24.0518001,24.2410908 C24.7044794,24.5446626 26.2071598,25.1821633 26.9357321,25.1821633 C27.8009117,25.1821633 29.2125205,24.6357341 29.5616281,23.7857331 C29.6982354,23.4366255 29.8196641,23.011625 29.8196641,22.6321603 C29.8196641,22.5714459 29.8196641,22.4803744 29.7893069,22.4044815 C29.6830568,22.2223384 27.2089467,20.9321583 26.9509107,20.9321583 L26.9509107,20.9321583 Z M23.869657,28.9768107 C22.0178691,28.9768107 20.1812598,28.4152029 18.6330436,27.3982374 L14.959825,28.5669888 L16.1589335,25.0303774 C14.9750035,23.4062684 14.3375028,21.4482303 14.3375028,19.4446565 C14.3375028,14.1928645 18.617865,9.91250228 23.869657,9.91250228 C29.121449,9.91250228 33.4018112,14.1928645 33.4018112,19.4446565 C33.4018112,24.6964485 29.121449,28.9768107 23.869657,28.9768107 L23.869657,28.9768107 Z M23.869657,8 C17.5553638,8 12.4250005,13.1303633 12.4250005,19.4446565 C12.4250005,21.5241233 12.9866083,23.5732329 14.0642882,25.3491278 L12,31.4964566 L18.3294718,29.4625256 C20.0294739,30.4035981 21.9419761,30.889313 23.869657,30.889313 C30.1839502,30.889313 35.3143135,25.7589497 35.3143135,19.4446565 C35.3143135,13.1303633 30.1839502,8 23.869657,8 L23.869657,8 Z" id="" stroke="none" fill="#FFFFFF" fill-rule="evenodd"></path>
</svg>